<svg width="161" height="30" xmlns="http://www.w3.org/2000/svg"><g fill="none" fill-rule="evenodd"><path d="M47.892 25.742c.757 0 1.44-.03 2.05-.09.608-.06 1.154-.145 1.637-.255.483-.109.922-.24 1.317-.393l-.247-5.197c-.34.219-.691.402-1.053.55-.362.147-.73.256-1.103.327a6.06 6.06 0 01-1.136.107c-.878 0-1.63-.159-2.255-.476-.626-.317-1.103-.756-1.433-1.32-.329-.562-.493-1.22-.493-1.975 0-1.049.299-1.88.897-2.491.598-.612 1.39-.919 2.379-.919.285 0 .625.03 1.02.09s.845.176 1.35.345c.505.17 1.076.434 1.712.795l.428-5.197a8.012 8.012 0 00-1.556-.614 14.125 14.125 0 00-3.844-.533c-1.942 0-3.552.377-4.831 1.13-1.279.755-2.233 1.788-2.864 3.1-.631 1.31-.947 2.803-.947 4.475 0 1.672.348 3.147 1.045 4.426.697 1.279 1.712 2.284 3.046 3.016 1.333.733 2.96 1.099 4.88 1.099zm13.663-.377v-8.968a3.2 3.2 0 01.51-.852c.198-.23.415-.413.65-.55.237-.136.495-.232.775-.286.28-.055.573-.082.88-.082.384 0 .76.005 1.128.016.368.011.782.022 1.243.033l.527-5.902a3.334 3.334 0 00-.89-.245 6.013 6.013 0 00-.79-.066c-.482 0-.974.082-1.473.246-.5.164-.99.462-1.473.893-.483.432-.933 1.063-1.35 1.894h-.494l-.263-2.82-5.12.279v16.41h6.14zM84 17.847c.036-.256.064-.515.085-.777.027-.35.04-.75.04-1.197 0-1.705-.293-3.101-.88-4.189a5.548 5.548 0 00-2.535-2.426c-1.103-.53-2.44-.795-4.009-.795-1.843 0-3.369.369-4.576 1.107a6.853 6.853 0 00-2.708 3.065c-.598 1.306-.897 2.806-.897 4.5 0 1.705.323 3.21.971 4.516.647 1.306 1.665 2.331 3.054 3.074 1.388.743 3.19 1.115 5.407 1.115.878 0 1.685-.046 2.42-.14a15.396 15.396 0 001.976-.368 10.61 10.61 0 001.514-.508l-.197-5.066a9.382 9.382 0 01-1.696.623c-.614.164-1.21.287-1.786.369-.576.082-1.062.123-1.457.123-1.02 0-1.85-.142-2.486-.426-.636-.285-1.105-.697-1.407-1.238a3.46 3.46 0 01-.37-1.048l-.01-.059h9.508l.039-.255zm-9.577-2.498l.005-.038c.05-.435.141-.818.273-1.151.214-.541.5-.951.856-1.23.357-.279.76-.418 1.21-.418.604 0 1.098.265 1.482.795.339.468.528 1.087.568 1.856l.002.065-4.396.12zM90.38 25.79c.768 0 1.452-.129 2.05-.385a5.347 5.347 0 001.555-1c.44-.41.802-.856 1.087-1.336h.411l.412 2.295h5.07V14.414c0-1.4-.266-2.536-.798-3.41-.532-.874-1.303-1.516-2.313-1.926-1.01-.41-2.222-.615-3.638-.615-.801 0-1.57.04-2.305.123a26.05 26.05 0 00-2.074.311c-.647.126-1.24.265-1.778.418a54.99 54.99 0 00-1.432.427l.263 5.098a14.254 14.254 0 014.355-1.32c.444-.06.853-.09 1.226-.09.658 0 1.213.06 1.663.18.45.12.784.307 1.004.558.22.251.318.58.296.983l-4.395.738a10.9 10.9 0 00-1.646.435 6.32 6.32 0 00-1.688.885 4.506 4.506 0 00-1.309 1.524c-.34.629-.51 1.418-.51 2.37 0 .885.173 1.682.519 2.393.345.71.853 1.27 1.522 1.68.67.41 1.487.615 2.453.615zm2.716-4.656c-.35 0-.674-.11-.97-.328-.297-.218-.445-.574-.445-1.065 0-.328.066-.604.197-.828.132-.224.31-.41.535-.558a2.35 2.35 0 01.75-.32c.46-.12.825-.223 1.094-.31.269-.088.477-.173.626-.255a2.1 2.1 0 00.386-.27v2.41a3.638 3.638 0 01-.617.803c-.236.23-.488.407-.757.533a1.874 1.874 0 01-.799.188zm18.29 4.705c.527 0 1.067-.027 1.621-.082a10.6 10.6 0 001.548-.262c.477-.12.875-.268 1.193-.443l-.313-4.869a4.986 4.986 0 01-1.16.558c-.379.12-.727.18-1.045.18-.714 0-1.219-.238-1.515-.713-.296-.476-.444-1.156-.444-2.041v-4.672h4.428V8.955h-4.428v-6.36l-6.058 1.032v5.328h-2.404v4.54h2.404v6.722c0 1.322.221 2.389.664 3.2l.068.12c.488.825 1.196 1.415 2.124 1.77.927.355 2.033.533 3.317.533zm9.828-18.721c1.119 0 1.997-.246 2.634-.738.636-.492.954-1.306.954-2.443 0-.94-.315-1.69-.946-2.254-.631-.563-1.501-.844-2.61-.844-1.108 0-1.983.27-2.625.811-.642.541-.963 1.304-.963 2.287 0 1.137.32 1.951.963 2.443.642.492 1.506.738 2.593.738zm3.094 18.246V8.79l-6.14.164v16.41h6.14zm14.207 0c.362-1.039.719-2.069 1.07-3.09.351-1.022.703-2.047 1.054-3.074l1.004-2.918c.428-1.224.853-2.448 1.276-3.673l1.26-3.655h-6.536l-.618 2.869-.666 3.082-.823 3.885h-.478l-.823-3.869c-.22-1.027-.436-2.055-.65-3.082-.214-1.027-.43-2.05-.65-3.066l-6.635.18c.428 1.214.854 2.43 1.276 3.648.423 1.219.842 2.435 1.26 3.648l1.004 2.901c.362 1.017.724 2.05 1.086 3.099.362 1.049.719 2.087 1.07 3.115h6.52zm22.279-7.518c.036-.256.064-.515.085-.777.027-.35.041-.75.041-1.197 0-1.705-.294-3.101-.88-4.189a5.548 5.548 0 00-2.536-2.426c-1.103-.53-2.439-.795-4.008-.795-1.844 0-3.37.369-4.577 1.107a6.853 6.853 0 00-2.708 3.065c-.598 1.306-.897 2.806-.897 4.5 0 1.705.324 3.21.971 4.516.648 1.306 1.666 2.331 3.054 3.074 1.388.743 3.19 1.115 5.408 1.115.878 0 1.684-.046 2.42-.14a15.396 15.396 0 001.975-.368 10.61 10.61 0 001.515-.508l-.198-5.066a9.382 9.382 0 01-1.696.623c-.614.164-1.21.287-1.786.369-.576.082-1.061.123-1.457.123-1.02 0-1.849-.142-2.485-.426-.637-.285-1.106-.697-1.408-1.238a3.46 3.46 0 01-.37-1.048l-.01-.059h9.508l.039-.255zm-9.576-2.498l.004-.038c.05-.435.142-.818.273-1.151.215-.541.5-.951.857-1.23.356-.279.76-.418 1.21-.418.603 0 1.097.265 1.481.795.339.468.528 1.087.568 1.856l.002.065-4.395.12z" fill="#000" fill-rule="nonzero"/><path d="M13 4c6.08 0 11.186 4.175 12.607 9.814h-1.964c-.094.516-.283.93-.567 1.243-.284.312-.696.468-1.236.468-.486 0-1.013-.13-1.58-.387a52.835 52.835 0 01-1.845-.886 14.576 14.576 0 00-2.198-.875c-.804-.251-1.685-.377-2.645-.377-1.729 0-3.09.733-4.083 2.2-.937 1.384-1.432 3.234-1.484 5.551L8 21.165h4.357c.094-.502.307-.91.638-1.222.33-.312.773-.468 1.327-.468.46 0 .966.126 1.52.377a65.15 65.15 0 011.864.886c.69.339 1.449.634 2.28.885A9.31 9.31 0 0022.69 22c1.004 0 1.879-.275 2.625-.825C23.577 26.305 18.72 30 13 30 5.82 30 0 24.18 0 17S5.82 4 13 4z" fill="#F94F4F"/></g></svg>